<?xml version="1.0" encoding="utf-8"?>
<!-- Generator: Adobe Illustrator 25.0.0, SVG Export Plug-In . SVG Version: 6.00 Build 0)  -->
<svg version="1.1" id="Calque_1" xmlns="http://www.w3.org/2000/svg" xmlns:xlink="http://www.w3.org/1999/xlink" x="0px" y="0px"
	 viewBox="0 0 500 500" style="enable-background:new 0 0 500 500;" xml:space="preserve">
<style type="text/css">
	.st0{fill:#2D2E83;}
	.st1{fill-rule:evenodd;clip-rule:evenodd;fill:url(#SVGID_1_);}
	.st2{fill:#57BC46;}
	.st3{fill:#4258F4;}
	.st4{clip-path:url(#SVGID_3_);fill:url(#SVGID_4_);}
	.st5{fill:#1B1464;}
	.st6{clip-path:url(#SVGID_6_);fill:url(#SVGID_7_);}
	.st7{clip-path:url(#SVGID_9_);fill:url(#SVGID_10_);}
	.st8{fill-rule:evenodd;clip-rule:evenodd;fill:#007BF5;}
</style>
<g>
	<path class="st5" d="M117.61,314v17.67h-2.22v-8.03h-10.1v8.03h-2.22V314h2.22v7.57h10.1V314H117.61z"/>
	<path class="st5" d="M130.89,313.65c5.23-0.08,9.11,4.14,9.04,9.19c0.08,5.05-3.81,9.27-9.04,9.19c-5.23,0.08-9.11-4.14-9.04-9.19
		C121.78,317.79,125.67,313.57,130.89,313.65z M130.89,315.72c-3.96,0-6.72,3.05-6.72,7.12c0,4.07,2.75,7.12,6.72,7.12
		c3.96,0,6.72-3.05,6.72-7.12C137.61,318.77,134.86,315.72,130.89,315.72z"/>
	<path class="st5" d="M162.58,314v17.67h-2.15v-14.26l-6.13,9.67h-1.84l-6.13-9.67v14.26h-2.15V314h2.35l6.87,10.78l6.84-10.78
		H162.58z"/>
	<path class="st5" d="M180.18,329.63v2.04h-12.35V314h12.09v2.04h-9.87v5.71h9.37v2.02h-9.37v5.86H180.18z"/>
</g>
<g>
	<path class="st5" d="M188.59,342.44v14.02h-1.7v-11.32l-4.87,7.67h-1.46l-4.87-7.67v11.32h-1.7v-14.02h1.86l5.45,8.55l5.43-8.55
		H188.59z"/>
	<path class="st5" d="M203.73,342.16c4.15-0.06,7.23,3.29,7.17,7.29c0.06,4.01-3.03,7.35-7.17,7.29c-4.15,0.06-7.23-3.29-7.17-7.29
		C196.5,345.45,199.59,342.1,203.73,342.16z M203.73,343.81c-3.15,0-5.33,2.42-5.33,5.65s2.18,5.65,5.33,5.65s5.33-2.42,5.33-5.65
		S206.88,343.81,203.73,343.81z"/>
	<path class="st5" d="M230.62,342.44v14.02h-1.64l-8.38-11.22v11.22h-1.72v-14.02h1.64l8.37,11.22v-11.22H230.62z"/>
	<path class="st5" d="M239.43,342.44h1.76v14.02h-1.76V342.44z"/>
	<path class="st5" d="M253.14,344.09h-4.69v-1.64h11.14v1.64h-4.69v12.38h-1.76V344.09z"/>
	<path class="st5" d="M273.17,342.16c4.15-0.06,7.23,3.29,7.17,7.29c0.06,4.01-3.03,7.35-7.17,7.29c-4.15,0.06-7.23-3.29-7.17-7.29
		C265.94,345.45,269.02,342.1,273.17,342.16z M273.17,343.81c-3.15,0-5.33,2.42-5.33,5.65s2.18,5.65,5.33,5.65s5.33-2.42,5.33-5.65
		S276.32,343.81,273.17,343.81z"/>
	<path class="st5" d="M292.36,350.9h-2.28v5.57h-1.76v-14.02h5.81c2.95,0,4.69,1.62,4.69,4.27c0,2.5-1.6,4.05-4.35,4.19l4.67,5.57
		h-2.12L292.36,350.9z M290.08,349.32h3.91c2.1,0,2.98-0.82,2.98-2.6s-0.9-2.64-2.98-2.64h-3.91V349.32z"/>
</g>
<g>
	<g>
		<path class="st5" d="M205.03,329.49v2.04h-12.35v-17.67h12.09v2.04h-9.87v5.71h9.37v2.02h-9.37v5.86H205.03z"/>
		<path class="st5" d="M224.32,313.86v17.67h-2.07L211.7,317.4v14.14h-2.17v-17.67h2.07L222.15,328v-14.14H224.32z"/>
		<path class="st5" d="M243.92,313.86l-7.07,17.67h-2.27l-7.07-17.67h2.32l5.88,15l5.88-15H243.92z"/>
		<path class="st5" d="M247.15,313.86h2.22v17.67h-2.22V313.86z"/>
		<path class="st5" d="M259.78,324.52h-2.88v7.02h-2.22v-17.67H262c3.71,0,5.91,2.04,5.91,5.38c0,3.16-2.02,5.1-5.48,5.28l5.88,7.02
			h-2.68L259.78,324.52z M256.9,322.52h4.92c2.65,0,3.76-1.04,3.76-3.28c0-2.25-1.14-3.33-3.76-3.33h-4.92V322.52z"/>
		<path class="st5" d="M280.23,313.51c5.23-0.08,9.11,4.14,9.04,9.19c0.08,5.05-3.81,9.27-9.04,9.19c-5.23,0.08-9.11-4.14-9.04-9.19
			C271.12,317.65,275.01,313.43,280.23,313.51z M280.23,315.58c-3.96,0-6.72,3.05-6.72,7.12c0,4.07,2.75,7.12,6.72,7.12
			c3.96,0,6.72-3.05,6.72-7.12C286.95,318.63,284.2,315.58,280.23,315.58z"/>
		<path class="st5" d="M308.31,313.86v17.67h-2.07l-10.55-14.14v14.14h-2.17v-17.67h2.07L306.14,328v-14.14H308.31z"/>
		<path class="st5" d="M331.97,313.86v17.67h-2.15v-14.26l-6.13,9.67h-1.84l-6.14-9.67v14.26h-2.15v-17.67h2.35l6.87,10.78
			l6.84-10.78H331.97z"/>
		<path class="st5" d="M349.57,329.49v2.04h-12.35v-17.67h12.09v2.04h-9.87v5.71h9.37v2.02h-9.37v5.86H349.57z"/>
		<path class="st5" d="M368.86,313.86v17.67h-2.07l-10.55-14.14v14.14h-2.17v-17.67h2.07L366.69,328v-14.14H368.86z"/>
		<path class="st5" d="M378.06,315.93h-5.91v-2.07h14.04v2.07h-5.91v15.6h-2.22V315.93z"/>
	</g>
</g>
<g>
	<defs>
		<path id="SVGID_5_" d="M204.54,233.61v-49.8l25.86-14.93l-7.69-4.44l-25.89,14.95v59.17
			C199.27,236.73,201.86,235.07,204.54,233.61 M267.74,233.61c2.69,1.47,5.27,3.12,7.73,4.95v-59.17l-31.12-17.97l-8.38-4.85
			l-25.39-14.66c-24.94,11.28-40.73,33.53-40.73,61.24c0,17.62,6.81,34.49,19.36,46.92l2.42,2.4l5.7,5.7
			c0.84-0.97,1.71-1.91,2.62-2.82c9.63-9.63,22.57-14.99,36.18-14.99c13.62,0,26.56,5.36,36.18,14.99c0.91,0.91,1.78,1.85,2.62,2.82
			l8.12-8.1c12.5-12.46,19.36-29.3,19.36-46.92c0-27.67-15.81-49.97-40.73-61.24l-19.84,11.45l7.72,4.46l12.53-7.24l0.16,0.08
			c19.97,9.88,32.43,30.24,32.43,52.49c0,15.58-6.16,30.37-17.1,41.46l-2.62,2.65l-0.24-0.21c-10.75-9.34-24.37-14.42-38.61-14.42
			c-14.24,0-27.87,5.08-38.62,14.42l-0.24,0.21l-2.61-2.66c-11.02-11.02-17.1-25.88-17.1-41.46c0-22.25,12.45-42.61,32.43-52.49
			l0.16-0.08l25.96,14.99l0.01-0.01l31.6,18.24V233.61z M202.25,263.08l5.49,5.49c0.81-1,1.67-1.95,2.58-2.86
			c6.87-6.87,16.1-10.7,25.82-10.7c9.72,0,18.95,3.83,25.82,10.7c0.91,0.91,1.77,1.87,2.58,2.86l5.49-5.49
			c-0.83-0.98-1.69-1.93-2.6-2.84c-8.32-8.32-19.51-12.96-31.29-12.96c-11.77,0-22.96,4.63-31.29,12.96
			C203.95,261.15,203.08,262.1,202.25,263.08z M214.98,270.85c-0.82,0.84-1.59,1.73-2.31,2.66l5.53,5.53
			c0.67-0.97,1.43-1.88,2.24-2.72l-0.01-0.01l0.24-0.24c4.12-4.12,9.65-6.39,15.47-6.39c5.82,0,11.35,2.28,15.47,6.39l0.24,0.24
			l-0.01,0.01c0.82,0.85,1.57,1.76,2.25,2.72l5.53-5.53c-0.72-0.93-1.49-1.82-2.31-2.66l-0.01,0.01l-0.24-0.24
			c-5.57-5.57-13.04-8.68-20.91-8.68c-7.87,0-15.35,3.11-20.91,8.68l-0.24,0.24L214.98,270.85z M223.22,284.05l12.93,12.93
			l12.92-12.92c-0.65-1.13-1.45-2.16-2.36-3.08c-0.98-0.98-2.09-1.82-3.3-2.49c-2.23-1.24-4.72-1.88-7.26-1.88
			c-2.55,0-5.04,0.64-7.26,1.88c-1.21,0.67-2.32,1.51-3.3,2.49C224.66,281.89,223.87,282.92,223.22,284.05z M225.4,199.13h8.19
			v-8.19h-8.19V199.13z M238.69,190.94v8.19h8.19v-8.19H238.69z M246.88,204.23h-8.19v8.19h8.19V204.23z M225.4,204.23v8.19h8.19
			v-8.19H225.4z M244.56,145.19l9.96-5.75c-5.97-1.72-12.16-2.58-18.37-2.58c-6.22,0-12.41,0.86-18.39,2.58l9.96,5.75
			c2.79-0.4,5.61-0.6,8.44-0.6C238.96,144.59,241.77,144.79,244.56,145.19z"/>
	</defs>
	<clipPath id="SVGID_1_">
		<use xlink:href="#SVGID_5_"  style="overflow:visible;"/>
	</clipPath>
	<linearGradient id="SVGID_3_" gradientUnits="userSpaceOnUse" x1="204.7899" y1="264.7476" x2="281.0323" y2="148.429">
		<stop  offset="0" style="stop-color:#E200FF"/>
		<stop  offset="1" style="stop-color:#19B5FE"/>
	</linearGradient>
	<rect x="169.86" y="136.86" style="clip-path:url(#SVGID_1_);fill:url(#SVGID_3_);" width="132.57" height="160.12"/>
</g>
<rect x="140.02" y="348.36" class="st5" width="27.48" height="3.58"/>
<rect x="306.12" y="348.36" class="st5" width="27.48" height="3.58"/>
</svg>
