<svg id="Calque_1" data-name="Calque 1" xmlns="http://www.w3.org/2000/svg" xmlns:xlink="http://www.w3.org/1999/xlink" viewBox="0 0 500 500"><defs><style>.cls-1{fill:none;clip-rule:evenodd;}.cls-2,.cls-3{fill:#fff;}.cls-3{font-size:20.03px;font-family:BRFirma-Regular, BR Firma;}.cls-4{clip-path:url(#clip-path);}.cls-5{fill:url(#linear-gradient);}</style><clipPath id="clip-path"><path class="cls-1" d="M204.54,233.61V183.8l25.86-14.93-7.69-4.44-25.89,14.95v59.18a64.44,64.44,0,0,1,7.72-4.95m63.2,0a64.55,64.55,0,0,1,7.73,4.95V179.38l-31.12-18L236,156.56l-25.38-14.65c-25,11.28-40.73,33.53-40.73,61.23a65.79,65.79,0,0,0,19.36,46.93l2.42,2.4,5.7,5.7c.84-1,1.71-1.92,2.62-2.82a51.17,51.17,0,0,1,72.37,0c.9.9,1.78,1.85,2.62,2.82l8.12-8.1a66.06,66.06,0,0,0,19.36-46.93c0-27.67-15.81-50-40.73-61.23l-19.84,11.45,7.72,4.46,12.53-7.24.16.08A58.73,58.73,0,0,1,277.6,244.6L275,247.25l-.24-.2a58.9,58.9,0,0,0-77.22,0l-.24.21-2.61-2.66A58.73,58.73,0,0,1,210,150.66l.16-.08,26,15h0l31.6,18.24Zm-65.49,29.47,5.49,5.49a36.78,36.78,0,0,1,2.58-2.86,36.5,36.5,0,0,1,51.64,0,36.78,36.78,0,0,1,2.58,2.86l5.49-5.49c-.83-1-1.69-1.93-2.6-2.84a44.26,44.26,0,0,0-62.57,0C204,261.15,203.08,262.1,202.25,263.08ZM215,270.85a28.92,28.92,0,0,0-2.3,2.65L218.2,279a23.37,23.37,0,0,1,2.25-2.72h0l.23-.24a21.92,21.92,0,0,1,30.94,0l.24.24h0a22.32,22.32,0,0,1,2.24,2.72l5.53-5.52a30.78,30.78,0,0,0-2.31-2.66h0l-.24-.24a29.53,29.53,0,0,0-41.82,0l-.24.24Zm8.24,13.2L236.14,297l12.93-12.92A14.78,14.78,0,0,0,246.7,281a14.86,14.86,0,0,0-10.56-4.37,14.89,14.89,0,0,0-12.92,7.45Zm2.18-84.92h8.19v-8.19H225.4Zm13.29-8.19v8.19h8.19v-8.19Zm8.19,13.29h-8.19v8.19h8.19Zm-21.48,0v8.19h8.19v-8.19Zm19.16-59,10-5.75a66.8,66.8,0,0,0-36.77,0l10,5.75a59.45,59.45,0,0,1,16.85,0Z"/></clipPath><linearGradient id="linear-gradient" x1="204.79" y1="264.75" x2="281.03" y2="148.43" gradientUnits="userSpaceOnUse"><stop offset="0" stop-color="#e200ff"/><stop offset="1" stop-color="#19b5fe"/></linearGradient></defs><path class="cls-2" d="M117.61,314v17.67h-2.22v-8h-10.1v8h-2.22V314h2.22v7.57h10.1V314Z"/><path class="cls-2" d="M130.89,313.65a9.19,9.19,0,1,1-9,9.19A8.89,8.89,0,0,1,130.89,313.65Zm0,2.07c-4,0-6.71,3-6.71,7.12s2.75,7.12,6.71,7.12,6.72-3.06,6.72-7.12S134.86,315.72,130.89,315.72Z"/><path class="cls-2" d="M162.58,314v17.67h-2.14V317.41l-6.14,9.67h-1.84l-6.14-9.67v14.26h-2.14V314h2.35l6.86,10.78L160.23,314Z"/><path class="cls-2" d="M180.18,329.63v2H167.84V314h12.09v2.05h-9.87v5.7h9.37v2h-9.37v5.86Z"/><text class="cls-3" transform="translate(173.1 356.47)">M O N I T O R</text><path class="cls-2" d="M205,329.49v2.05H192.69V313.86h12.09v2.05h-9.87v5.7h9.37v2h-9.37v5.86Z"/><path class="cls-2" d="M224.32,313.86v17.68h-2.07L211.7,317.4v14.14h-2.17V313.86h2.07L222.15,328V313.86Z"/><path class="cls-2" d="M243.92,313.86l-7.07,17.68h-2.27l-7.07-17.68h2.32l5.88,15,5.89-15Z"/><path class="cls-2" d="M247.15,313.86h2.23v17.68h-2.23Z"/><path class="cls-2" d="M259.78,324.52H256.9v7h-2.22V313.86H262c3.71,0,5.91,2.05,5.91,5.38,0,3.16-2,5.1-5.48,5.28l5.88,7h-2.67Zm-2.88-2h4.92c2.65,0,3.77-1,3.77-3.28s-1.14-3.33-3.77-3.33H256.9Z"/><path class="cls-2" d="M280.23,313.51a9.19,9.19,0,1,1-9,9.19A8.89,8.89,0,0,1,280.23,313.51Zm0,2.07c-4,0-6.71,3.05-6.71,7.12s2.75,7.12,6.71,7.12,6.72-3.06,6.72-7.12S284.2,315.58,280.23,315.58Z"/><path class="cls-2" d="M308.31,313.86v17.68h-2.07L295.69,317.4v14.14h-2.17V313.86h2.07L306.14,328V313.86Z"/><path class="cls-2" d="M332,313.86v17.68h-2.15V317.27l-6.13,9.67h-1.84l-6.14-9.67v14.27h-2.15V313.86h2.35l6.87,10.78,6.84-10.78Z"/><path class="cls-2" d="M349.57,329.49v2.05H337.23V313.86h12.09v2.05h-9.87v5.7h9.36v2h-9.36v5.86Z"/><path class="cls-2" d="M368.86,313.86v17.68h-2.07L356.24,317.4v14.14h-2.17V313.86h2.07L366.69,328V313.86Z"/><path class="cls-2" d="M378.06,315.93h-5.91v-2.07h14v2.07h-5.9v15.61h-2.22Z"/><g class="cls-4"><rect class="cls-5" x="169.86" y="136.86" width="132.57" height="160.12"/></g><rect class="cls-2" x="140.02" y="348.36" width="27.48" height="3.58"/><rect class="cls-2" x="306.12" y="348.36" width="27.48" height="3.58"/></svg>